HIERARCHY
ROOT root
{
	OFFSET	0	13.1	24.9
	CHANNELS 6  Xposition Yposition Zposition Xrotation Yrotation Zrotation
	JOINT spine_1
	{
		OFFSET	0	9.99999	0
		CHANNELS 3  Xrotation Yrotation Zrotation
		JOINT spine_2
		{
			OFFSET	0	112	-10
			CHANNELS 3  Xrotation Yrotation Zrotation
			JOINT spine_3
			{
				OFFSET	0	206.5	19.3
				CHANNELS 3  Xrotation Yrotation Zrotation
				JOINT spine_4
				{
					OFFSET	0	110.4	14.6
					CHANNELS 3  Xrotation Yrotation Zrotation
					JOINT neck_1
					{
						OFFSET	0	71.8	-50.3
						CHANNELS 3  Xrotation Yrotation Zrotation
						JOINT neck_2
						{
							OFFSET	0	86.2	-25.8
							CHANNELS 3  Xrotation Yrotation Zrotation
							JOINT head_ee
							{
								OFFSET	0	179.8	-8.7
								CHANNELS 3  Xrotation Yrotation Zrotation
								End Site
								{
									OFFSET	1	0	0
								}
							}
						}
					}
					JOINT left_clavicle
					{
						OFFSET	-43.2	22.4	-70.8
						CHANNELS 3  Xrotation Yrotation Zrotation
						JOINT left_shoulder
						{
							OFFSET	-93.9	-5.79999	48.7
							CHANNELS 3  Xrotation Yrotation Zrotation
							JOINT left_elbow
							{
								OFFSET	-291.4	-30.8	15.2
								CHANNELS 3  Xrotation Yrotation Zrotation
								JOINT left_lowarm_twist
								{
									OFFSET	-110.7	-3.89999	13.6
									CHANNELS 3  Xrotation Yrotation Zrotation
									JOINT left_hand
									{
										OFFSET	-110.7	-3.89999	13.6
										CHANNELS 3  Xrotation Yrotation Zrotation
										JOINT left_ee
										{
											OFFSET	-80.8	-5.10001	12.1
											CHANNELS 3  Xrotation Yrotation Zrotation
											End Site
											{
												OFFSET	1	0	0
											}
										}
									}
								}
							}
						}
					}
					JOINT right_clavicle
					{
						OFFSET	43.2	22.4	-70.8
						CHANNELS 3  Xrotation Yrotation Zrotation
						JOINT right_shoulder
						{
							OFFSET	93.9	-5.79999	48.7
							CHANNELS 3  Xrotation Yrotation Zrotation
							JOINT right_elbow
							{
								OFFSET	291.4	-30.8	15.2
								CHANNELS 3  Xrotation Yrotation Zrotation
								JOINT right_lowarm_twist
								{
									OFFSET	110.7	-3.89999	13.6
									CHANNELS 3  Xrotation Yrotation Zrotation
									JOINT right_hand
									{
										OFFSET	110.7	-3.89999	13.6
										CHANNELS 3  Xrotation Yrotation Zrotation
										JOINT right_ee
										{
											OFFSET	80.8	-5.10001	12.1
											CHANNELS 3  Xrotation Yrotation Zrotation
											End Site
											{
												OFFSET	1	0	0
											}
										}
									}
								}
							}
						}
					}
				}
			}
		}
	}
	JOINT left_hip
	{
		OFFSET	-82.8	-127.5	0.300001
		CHANNELS 3  Xrotation Yrotation Zrotation
		JOINT left_knee
		{
			OFFSET	-28.2	-396.7	2.2
			CHANNELS 3  Xrotation Yrotation Zrotation
			JOINT left_ankle
			{
				OFFSET	-11.7	-411.3	35.4
				CHANNELS 3  Xrotation Yrotation Zrotation
				JOINT left_toes
				{
					OFFSET	0	-60	-88.6
					CHANNELS 3  Xrotation Yrotation Zrotation
					JOINT left_foot_ee
					{
						OFFSET	-22.5	-16.5	-42.2
						CHANNELS 3  Xrotation Yrotation Zrotation
						End Site
						{
							OFFSET	1	0	0
						}
					}
				}
			}
		}
	}
	JOINT right_hip
	{
		OFFSET	82.8	-127.5	0.300001
		CHANNELS 3  Xrotation Yrotation Zrotation
		JOINT right_knee
		{
			OFFSET	28.2	-396.7	2.2
			CHANNELS 3  Xrotation Yrotation Zrotation
			JOINT right_ankle
			{
				OFFSET	11.7	-411.3	35.4
				CHANNELS 3  Xrotation Yrotation Zrotation
				JOINT right_toes
				{
					OFFSET	0	-60	-88.6
					CHANNELS 3  Xrotation Yrotation Zrotation
					JOINT right_foot_ee
					{
						OFFSET	22.5	-16.5	-42.2
						CHANNELS 3  Xrotation Yrotation Zrotation
						End Site
						{
							OFFSET	1	0	0
						}
					}
				}
			}
		}
	}
}
MOTION
Frames: 6
Frame Time: 0.02
1027.41 696.894 -1644.44 18.6789 70.3768 3.92649 0.600053 -1.31268 -6.12454 0.620435 -0.92107 -6.19528 0.728242 0.321541 -6.25489 0.674314 -0.668377 -6.22749 -7.07535 -2.70765 4.82343 -6.99923 -8.50841 4.27704 -0.0 0.0 -0.0 10.9322 -7.57736 21.879 6.12072 -28.7605 61.6429 0.863192 -23.1513 0.176809 25.3897 0.185693 -3.21157 -0.397901 -8.50272 -6.30935 -0.0 0.0 -0.0 1.33072 -16.6768 -4.03 -12.9747 17.7314 -64.8154 0.492801 13.7189 -0.0592818 10.593 -0.251088 1.32795 1.82744 -3.90562 -13.8336 0.0 0.0 0.0 24.9197 25.7503 -37.9403 -30.3136 0.0319268 4.59804 34.8854 -21.1267 -4.90711 -19.7148 0.0 0.0 -0.0 0.0 -0.0 23.4051 -2.46989 -18.9239 -52.7191 1.46713 -7.67617 21.8893 -23.2944 3.08636 0.379584 -0.0 -0.0 0.0 0.0 0.0 
1018.26 694.564 -1649.97 18.3965 69.7251 4.52847 0.695031 -1.50113 -6.34573 0.716751 -1.09515 -6.42792 0.848103 0.18223 -6.51762 0.789877 -0.847201 -6.46512 -6.93805 -2.81463 5.15018 -6.84992 -8.94971 4.59584 -0.0 0.0 -0.0 11.693 -6.52828 23.5369 6.57543 -27.7238 60.2595 0.811032 -21.8882 0.15683 23.9258 0.213832 -3.0267 -0.593696 -12.4204 -9.31764 -0.0 0.0 -0.0 0.950029 -16.2915 -3.40227 -11.5362 17.5464 -65.7805 0.411481 11.5213 -0.0415114 9.86185 -0.24169 1.23503 1.32749 -4.11377 -10.535 0.0 0.0 0.0 26.2429 28.1879 -40.2992 -30.0595 0.0417817 4.56029 37.7936 -20.8908 -5.1874 -18.2313 0.0 0.0 -0.0 0.0 -0.0 26.084 -3.41035 -18.6563 -55.0935 1.69411 -7.96315 20.0147 -23.2825 2.84455 -1.07291 0.0 0.0 0.0 0.0 0.0 
1010.66 690.487 -1651.98 14.1035 69.4919 8.23113 0.975362 -1.33915 -6.30967 0.997007 -0.935775 -6.38169 1.10754 0.301189 -6.44265 1.05038 -0.71795 -6.40974 -6.36725 -1.7505 6.2359 -6.23903 -7.80566 5.94821 -0.0 0.0 -0.0 11.2187 -8.61197 22.5207 7.83583 -28.6471 59.0621 0.891701 -23.8318 0.188173 24.2144 0.208659 -3.0632 -0.766088 -14.1685 -11.2376 -0.0 0.0 -0.0 -0.0985482 -18.7988 -2.04933 -12.536 20.4728 -65.8896 0.568289 15.7228 -0.078467 9.81005 -0.240979 1.22845 1.46156 -4.03882 -11.4074 0.0 0.0 0.0 26.2689 28.6281 -39.8163 -29.3827 0.0672156 4.45953 37.1557 -23.3631 -5.24064 -18.1582 0.0 0.0 -0.0 0.0 -0.0 27.5566 -3.67038 -17.7647 -54.5271 1.63888 -7.89554 20.1298 -23.1323 2.85738 -0.955653 0.0 0.0 0.0 0.0 0.0 
999.733 687.856 -1657.76 11.5834 68.1545 11.0448 1.31292 -1.24238 -6.52932 1.33624 -0.825313 -6.59474 1.4354 0.413115 -6.63317 1.37463 -0.637306 -6.61547 -5.72739 -1.94681 6.66066 -5.57368 -8.53032 6.40087 -0.0 0.0 -0.0 11.8209 -7.46073 23.8432 8.93574 -28.5253 57.9418 0.856994 -23.0025 0.17438 21.9484 0.244326 -2.77596 -0.731029 -17.9727 -12.5926 -0.0 0.0 -0.0 -0.367535 -16.3512 -1.34407 -12.3108 18.3427 -67.2654 0.481301 13.4104 -0.0565845 9.84781 -0.241497 1.23324 1.11977 -3.90843 -9.06321 0.0 0.0 0.0 27.5208 30.7784 -41.1277 -28.2213 0.108074 4.28598 38.2347 -22.4723 -5.30242 -17.2655 0.0 0.0 -0.0 0.0 -0.0 28.1013 -2.66788 -18.1216 -49.4229 1.17228 -7.26296 17.9674 -23.2349 2.5743 -3.13411 0.0 0.0 0.0 0.0 0.0 
992.098 685.156 -1665.78 10.249 67.7357 12.4139 1.38986 -1.24457 -6.42895 1.41245 -0.833842 -6.49473 1.51057 0.377422 -6.53698 1.4516 -0.657465 -6.51487 -5.91201 -1.48429 5.87192 -5.79597 -7.07933 5.66634 -0.0 0.0 -0.0 11.1714 -8.67556 22.4163 9.12244 -28.0147 57.6684 0.978305 -25.8554 0.224565 22.7373 0.233198 -2.87611 -0.816564 -19.5362 -13.8212 -0.0 0.0 -0.0 -0.979934 -18.9515 -0.747917 -14.1226 21.7753 -67.0709 0.714812 19.4989 -0.122822 10.504 -0.250008 1.31663 1.56699 -4.09029 -12.1385 0.0 0.0 0.0 27.2669 30.0645 -41.9124 -28.9511 0.0828096 4.39514 37.8435 -24.0413 -5.34278 -17.0421 0.0 0.0 -0.0 0.0 -0.0 27.406 -3.12849 -18.796 -36.8245 0.277203 -5.54859 11.4003 -23.7612 1.67704 -4.12339 0.0 0.0 0.0 0.0 0.0 
983.834 685.499 -1674.78 8.67013 66.5387 13.901 1.50364 -1.21035 -6.27037 1.52513 -0.809715 -6.33433 1.61738 0.359671 -6.37557 1.5613 -0.649665 -6.35266 -4.60701 -0.842159 5.09391 -4.51646 -5.40353 5.07747 -0.0 0.0 -0.0 11.0369 -8.09393 22.1147 8.90028 -27.9717 56.3388 1.00928 -26.563 0.238245 22.0539 0.242916 -2.78937 -0.748534 -21.7199 -14.2508 -0.0 0.0 -0.0 -0.714528 -17.7377 -0.984553 -15.4788 23.2709 -67.0102 0.748783 20.3511 -0.134399 11.4763 -0.260859 1.44034 1.72431 -4.10724 -13.21 0.0 0.0 0.0 26.0474 29.839 -41.5857 -28.1158 0.11161 4.27018 37.9993 -22.5457 -5.28332 -16.7227 0.0 0.0 -0.0 0.0 -0.0 26.6403 -2.04017 -20.3942 -30.1715 -0.0374594 -4.57693 9.79519 -21.4019 1.43282 -4.5684 0.0 0.0 0.0 0.0 0.0 
